<?xml version="1.0" encoding="utf-8"?>
<svg xmlns="http://www.w3.org/2000/svg"
	xmlns:xlink="http://www.w3.org/1999/xlink"
	width="12px" height="12px" viewBox="0 0 12 12">
<path fillRule="evenodd" d="M 6.19 0.3C 6.19 0.3 8.1 3.98 8.1 3.98 8.1 3.98 12 4.77 12 4.77 12 4.77 9.29 7.83 9.29 7.83 9.29 7.83 9.78 12 9.78 12 9.78 12 6.19 10.22 6.19 10.22 6.19 10.22 2.6 12 2.6 12 2.6 12 3.09 7.83 3.09 7.83 3.09 7.83 0.38 4.77 0.38 4.77 0.38 4.77 4.27 3.98 4.27 3.98 4.27 3.98 6.19 0.3 6.19 0.3" fill="rgb(77,37,253)"/></svg>